<?xml version="1.0" encoding="utf-8"?>
<!-- Generator: Adobe Illustrator 16.0.4, SVG Export Plug-In . SVG Version: 6.00 Build 0)  -->
<!DOCTYPE svg PUBLIC "-//W3C//DTD SVG 1.1//EN" "http://www.w3.org/Graphics/SVG/1.1/DTD/svg11.dtd">
<svg version="1.1" id="Layer_1" xmlns="http://www.w3.org/2000/svg" xmlns:xlink="http://www.w3.org/1999/xlink" x="0px" y="0px"
	 width="178.666px" height="54px" viewBox="0 0 178.666 54" enable-background="new 0 0 178.666 54" xml:space="preserve">
<path fill="#5CB85C" d="M79,48.142C79,51.096,76.785,54,74.052,54H4.948C2.215,54,0,51.096,0,48.142V5.349C0,2.395,2.215,0,4.948,0
	h69.104C76.785,0,79,2.395,79,5.349V48.142z"/>
<g>
	<path fill="#5CB85C" d="M88.023,8.637h3.223v8.004h7.605V8.637h3.223V27h-3.223v-7.992h-7.605V27h-3.223V8.637z"/>
	<path fill="#5CB85C" d="M118.797,11.004h-5.648V27h-3.223V11.004h-5.637V8.637h14.508V11.004z"/>
	<path fill="#5CB85C" d="M134.219,11.004h-5.648V27h-3.223V11.004h-5.637V8.637h14.508V11.004z"/>
	<path fill="#5CB85C" d="M139.656,19.898V27h-3.223V8.637h5.215c1.164,0,2.174,0.137,3.029,0.41s1.564,0.65,2.127,1.131
		s0.98,1.053,1.254,1.717s0.41,1.387,0.41,2.168c0,0.305-0.039,0.66-0.117,1.066s-0.215,0.826-0.41,1.26s-0.465,0.859-0.809,1.277
		s-0.783,0.793-1.318,1.125s-1.176,0.6-1.922,0.803s-1.623,0.305-2.631,0.305H139.656z M139.656,17.543l1.629-0.012
		c0.594,0,1.137-0.074,1.629-0.223s0.914-0.367,1.266-0.656s0.623-0.645,0.814-1.066s0.287-0.902,0.287-1.441
		c0-0.43-0.066-0.834-0.199-1.213s-0.352-0.711-0.656-0.996s-0.705-0.512-1.201-0.68s-1.111-0.252-1.846-0.252h-1.723V17.543z"/>
	<path fill="#5CB85C" d="M150.285,29.367l11.613-22.664l1.57,0.844l-11.414,22.699L150.285,29.367z"/>
	<path fill="#5CB85C" d="M177.074,27h-11.59v-1.418c0-0.68,0.123-1.283,0.369-1.811s0.57-1.006,0.973-1.436s0.859-0.828,1.371-1.195
		s1.037-0.73,1.576-1.09s1.064-0.734,1.576-1.125s0.969-0.822,1.371-1.295s0.727-1.008,0.973-1.605s0.369-1.283,0.369-2.057
		c0-0.609-0.09-1.123-0.27-1.541s-0.418-0.758-0.715-1.02s-0.641-0.451-1.031-0.568s-0.797-0.176-1.219-0.176
		c-0.703,0-1.334,0.104-1.893,0.311s-1.041,0.467-1.447,0.779l-1.629-2.191c0.312-0.219,0.641-0.414,0.984-0.586
		s0.719-0.32,1.125-0.445s0.852-0.221,1.336-0.287s1.027-0.1,1.629-0.1c0.93,0,1.789,0.123,2.578,0.369s1.471,0.598,2.045,1.055
		s1.023,1.016,1.348,1.676s0.486,1.4,0.486,2.221c0,0.766-0.121,1.473-0.363,2.121s-0.562,1.248-0.961,1.799
		s-0.854,1.059-1.365,1.523s-1.031,0.898-1.559,1.301s-1.047,0.781-1.559,1.137s-0.967,0.697-1.365,1.025s-0.719,0.65-0.961,0.967
		s-0.363,0.639-0.363,0.967h8.18V27z"/>
</g>
<g>
	<path fill="#5CB85C" d="M90.646,33.54c2.259,0,3.942,0.614,5.05,1.843s1.662,2.888,1.662,4.978c0,2.354-0.586,4.166-1.757,5.434
		c-1.171,1.268-2.856,1.901-5.054,1.901h-2.927V33.54H90.646z M89.156,34.715v11.807h1.147c1.692,0,3.014-0.522,3.965-1.567
		s1.427-2.589,1.427-4.63c0-1.789-0.447-3.171-1.341-4.146c-0.895-0.976-2.233-1.463-4.015-1.463H89.156z"/>
	<path fill="#5CB85C" d="M99.924,39.15c0.223-0.205,0.483-0.392,0.781-0.561c0.298-0.169,0.614-0.313,0.949-0.434
		c0.334-0.12,0.68-0.212,1.039-0.275s0.715-0.095,1.071-0.095c1,0,1.794,0.25,2.385,0.749c0.59,0.5,0.885,1.196,0.885,2.087v4.345
		c0,0.355,0.012,0.647,0.036,0.877c0.024,0.229,0.068,0.409,0.131,0.542c0.063,0.132,0.147,0.225,0.253,0.275
		c0.105,0.051,0.239,0.077,0.402,0.077c0.205,0,0.413-0.021,0.623-0.063l0.226,0.659c-0.163,0.156-0.393,0.283-0.691,0.379
		c-0.298,0.097-0.619,0.145-0.962,0.145c-0.38,0-0.686-0.134-0.917-0.401c-0.232-0.268-0.381-0.652-0.447-1.151
		c-0.512,0.476-1.07,0.854-1.676,1.133c-0.605,0.28-1.254,0.42-1.946,0.42c-0.38,0-0.733-0.056-1.062-0.167
		c-0.329-0.111-0.613-0.272-0.854-0.483c-0.241-0.21-0.429-0.469-0.565-0.776c-0.135-0.308-0.203-0.656-0.203-1.048
		c0-0.523,0.101-0.979,0.303-1.364c0.202-0.385,0.468-0.714,0.799-0.984s0.712-0.491,1.143-0.659
		c0.431-0.169,0.876-0.302,1.337-0.397c0.461-0.097,0.92-0.161,1.378-0.194c0.458-0.033,0.879-0.05,1.265-0.05V40.73
		c0-0.638-0.166-1.102-0.497-1.391s-0.795-0.434-1.391-0.434c-0.337,0-0.652,0.039-0.944,0.117
		c-0.292,0.078-0.564,0.178-0.817,0.298c-0.253,0.121-0.485,0.253-0.696,0.397s-0.4,0.283-0.569,0.416L99.924,39.15z
		 M105.606,42.582c-0.819,0.019-1.524,0.093-2.114,0.222c-0.59,0.13-1.075,0.306-1.454,0.528s-0.659,0.485-0.84,0.786
		s-0.271,0.632-0.271,0.993c0,0.513,0.145,0.889,0.434,1.13c0.289,0.24,0.69,0.361,1.202,0.361c0.277,0,0.552-0.03,0.827-0.091
		c0.274-0.06,0.541-0.142,0.799-0.244c0.259-0.102,0.507-0.224,0.745-0.365s0.462-0.294,0.673-0.456V42.582z"/>
	<path fill="#5CB85C" d="M110.691,45.338c0.409,0.445,0.831,0.792,1.265,1.039c0.434,0.246,0.979,0.37,1.635,0.37
		c0.663,0,1.208-0.141,1.635-0.42c0.428-0.28,0.642-0.664,0.642-1.152c0-0.337-0.108-0.628-0.325-0.871
		c-0.217-0.244-0.653-0.483-1.31-0.719c-0.247-0.084-0.732-0.25-1.455-0.497c-0.681-0.18-1.319-0.487-1.915-0.921
		s-0.894-1.048-0.894-1.843c0-0.759,0.322-1.371,0.966-1.838s1.479-0.7,2.502-0.7c0.361,0,0.697,0.02,1.007,0.059
		s0.602,0.104,0.876,0.194c0.274,0.09,0.533,0.207,0.777,0.352c0.244,0.145,0.48,0.326,0.709,0.543l-0.822,0.984
		c-0.409-0.355-0.808-0.614-1.197-0.777c-0.388-0.162-0.833-0.244-1.333-0.244c-0.614,0-1.122,0.115-1.522,0.344
		s-0.601,0.563-0.601,1.003c0,0.421,0.187,0.757,0.56,1.007s0.816,0.45,1.328,0.601c0.271,0.085,0.539,0.172,0.804,0.263
		c0.265,0.09,0.533,0.177,0.804,0.262c0.855,0.307,1.47,0.668,1.843,1.084c0.374,0.415,0.561,0.96,0.561,1.635
		c0,0.843-0.347,1.515-1.039,2.015s-1.548,0.749-2.565,0.749c-0.795,0-1.498-0.101-2.109-0.302
		c-0.611-0.202-1.203-0.598-1.775-1.188L110.691,45.338z"/>
	<path fill="#5CB85C" d="M119.444,33.54h1.427v5.149c0.325-0.193,0.754-0.392,1.287-0.597c0.533-0.204,1.137-0.307,1.811-0.307
		c1.024,0,1.808,0.295,2.354,0.885c0.545,0.591,0.817,1.389,0.817,2.394v6.631h-1.427l0.009-6.549c0-0.692-0.172-1.231-0.515-1.617
		s-0.879-0.578-1.608-0.578c-0.458,0-0.927,0.078-1.409,0.234c-0.482,0.157-0.921,0.341-1.319,0.552v7.958h-1.427V33.54z"/>
	<path fill="#5CB85C" d="M129.887,33.54h1.427v5.203c0.289-0.247,0.682-0.468,1.179-0.664c0.497-0.195,1.08-0.293,1.748-0.293
		c1.247,0,2.203,0.434,2.868,1.301c0.665,0.867,0.998,2.06,0.998,3.577c0,1.596-0.388,2.857-1.166,3.785
		c-0.776,0.927-2.083,1.391-3.92,1.391c-0.428,0-0.943-0.022-1.545-0.067c-0.602-0.046-1.132-0.095-1.59-0.149V33.54z
		 M131.314,46.395c0.482,0.247,1.147,0.37,1.997,0.37c1.15,0,1.985-0.393,2.506-1.179s0.782-1.706,0.782-2.76
		c0-1.24-0.241-2.188-0.723-2.841c-0.482-0.653-1.145-0.979-1.987-0.979c-0.506,0-0.989,0.075-1.45,0.226
		c-0.46,0.15-0.835,0.334-1.125,0.551V46.395z"/>
	<path fill="#5CB85C" d="M144.774,47.857c-1.53,0-2.686-0.473-3.469-1.418s-1.174-2.198-1.174-3.758
		c0-1.396,0.418-2.562,1.256-3.496c0.837-0.933,1.951-1.399,3.342-1.399c1.421,0,2.519,0.484,3.293,1.454
		c0.773,0.97,1.161,2.177,1.161,3.622c0,1.373-0.407,2.549-1.219,3.527C147.149,47.369,146.087,47.857,144.774,47.857z
		 M144.711,46.711c0.5,0,0.936-0.117,1.31-0.353s0.745-0.659,1.116-1.273c0.37-0.614,0.555-1.448,0.555-2.503
		c0-0.921-0.254-1.76-0.763-2.516c-0.509-0.755-1.254-1.133-2.236-1.133c-0.981,0-1.739,0.361-2.271,1.084
		c-0.533,0.723-0.8,1.668-0.8,2.836c0,1,0.191,1.776,0.574,2.33c0.382,0.555,0.768,0.947,1.156,1.18
		C143.74,46.595,144.193,46.711,144.711,46.711z"/>
	<path fill="#5CB85C" d="M151.657,39.15c0.223-0.205,0.483-0.392,0.781-0.561c0.298-0.169,0.614-0.313,0.949-0.434
		c0.334-0.12,0.68-0.212,1.039-0.275s0.715-0.095,1.071-0.095c1,0,1.794,0.25,2.385,0.749c0.59,0.5,0.885,1.196,0.885,2.087v4.345
		c0,0.355,0.012,0.647,0.036,0.877c0.024,0.229,0.068,0.409,0.131,0.542c0.063,0.132,0.147,0.225,0.253,0.275
		c0.105,0.051,0.239,0.077,0.402,0.077c0.205,0,0.413-0.021,0.623-0.063l0.226,0.659c-0.163,0.156-0.393,0.283-0.691,0.379
		c-0.298,0.097-0.619,0.145-0.962,0.145c-0.38,0-0.686-0.134-0.917-0.401c-0.232-0.268-0.381-0.652-0.447-1.151
		c-0.512,0.476-1.07,0.854-1.676,1.133c-0.605,0.28-1.254,0.42-1.946,0.42c-0.38,0-0.733-0.056-1.062-0.167
		c-0.329-0.111-0.613-0.272-0.854-0.483c-0.241-0.21-0.429-0.469-0.565-0.776c-0.135-0.308-0.203-0.656-0.203-1.048
		c0-0.523,0.101-0.979,0.303-1.364c0.202-0.385,0.468-0.714,0.799-0.984s0.712-0.491,1.143-0.659
		c0.431-0.169,0.876-0.302,1.337-0.397c0.461-0.097,0.92-0.161,1.378-0.194c0.458-0.033,0.879-0.05,1.265-0.05V40.73
		c0-0.638-0.166-1.102-0.497-1.391s-0.795-0.434-1.391-0.434c-0.337,0-0.652,0.039-0.944,0.117
		c-0.292,0.078-0.564,0.178-0.817,0.298c-0.253,0.121-0.485,0.253-0.696,0.397s-0.4,0.283-0.569,0.416L151.657,39.15z
		 M157.339,42.582c-0.819,0.019-1.524,0.093-2.114,0.222c-0.59,0.13-1.075,0.306-1.454,0.528s-0.659,0.485-0.84,0.786
		s-0.271,0.632-0.271,0.993c0,0.513,0.145,0.889,0.434,1.13c0.289,0.24,0.69,0.361,1.202,0.361c0.277,0,0.552-0.03,0.827-0.091
		c0.274-0.06,0.541-0.142,0.799-0.244c0.259-0.102,0.507-0.224,0.745-0.365s0.462-0.294,0.673-0.456V42.582z"/>
	<path fill="#5CB85C" d="M163.481,37.939c0.042,0.156,0.074,0.366,0.095,0.628s0.032,0.604,0.032,1.025
		c0.464-0.555,1.007-0.994,1.63-1.319c0.624-0.325,1.272-0.487,1.947-0.487c0.078,0,0.161,0.006,0.249,0.018
		c0.087,0.013,0.152,0.024,0.194,0.036l-0.308,1.49c-0.181-0.048-0.409-0.072-0.687-0.072c-0.801,0-1.466,0.182-1.996,0.543
		s-0.87,0.716-1.021,1.065v6.829h-1.428v-8.41c-0.012-0.776-0.03-1.226-0.054-1.346H163.481z"/>
	<path fill="#5CB85C" d="M173.093,37.786c0.837,0,1.671,0.165,2.502,0.497V33.54h1.427v11.075c0,0.801,0.036,1.407,0.108,1.82
		c0.072,0.412,0.175,0.832,0.307,1.26h-1.337c-0.078-0.103-0.15-0.225-0.217-0.366c-0.066-0.141-0.121-0.29-0.163-0.446
		c-0.434,0.282-0.875,0.513-1.323,0.69c-0.449,0.178-1.017,0.267-1.703,0.267c-1.222,0-2.201-0.461-2.936-1.382
		c-0.735-0.922-1.102-2.104-1.102-3.55c0-1.464,0.405-2.684,1.215-3.659S171.756,37.786,173.093,37.786z M172.921,46.629
		c0.584,0,1.062-0.049,1.432-0.148c0.371-0.1,0.785-0.336,1.242-0.709v-6.378c-0.687-0.24-1.436-0.361-2.25-0.361
		c-1.132,0-1.946,0.388-2.443,1.161c-0.497,0.773-0.745,1.648-0.745,2.624c0,1.042,0.249,1.938,0.745,2.688
		C171.399,46.255,172.072,46.629,172.921,46.629z"/>
</g>
<g opacity="0.6">
	
		<line fill="none" stroke="#FFFFFF" stroke-width="3" stroke-linecap="round" stroke-miterlimit="10" x1="7.07" y1="47.772" x2="27.598" y2="38.17"/>
	
		<line fill="none" stroke="#FFFFFF" stroke-width="3" stroke-linecap="round" stroke-miterlimit="10" x1="27.549" y1="38.189" x2="43.825" y2="43.796"/>
	
		<line fill="none" stroke="#FFFFFF" stroke-width="3" stroke-linecap="round" stroke-miterlimit="10" x1="43.816" y1="43.82" x2="72.583" y2="8"/>
	
		<circle fill="#FFFFFF" stroke="#FFFFFF" stroke-width="3" stroke-linecap="round" stroke-miterlimit="10" cx="27.292" cy="38.501" r="3.042"/>
	
		<circle fill="#FFFFFF" stroke="#FFFFFF" stroke-width="3" stroke-linecap="round" stroke-miterlimit="10" cx="44.292" cy="43.501" r="3.042"/>
	
		<circle fill="#FFFFFF" stroke="#FFFFFF" stroke-width="3" stroke-linecap="round" stroke-miterlimit="10" cx="72.292" cy="7.501" r="3.042"/>
	
		<circle fill="#FFFFFF" stroke="#FFFFFF" stroke-width="3" stroke-linecap="round" stroke-miterlimit="10" cx="7.292" cy="47.501" r="3.042"/>
</g>
</svg>
